<mxfile host="app.diagrams.net" agent="Mozilla/5.0 (X11; Linux x86_64) AppleWebKit/537.36 (KHTML, like Gecko) Chrome/132.0.0.0 Safari/537.36" version="25.0.3">
  <diagram name="Page-1" id="3fIQNJAVzy5GbbGU44bo">
    <mxGraphModel dx="1440" dy="794" grid="1" gridSize="10" guides="1" tooltips="1" connect="1" arrows="1" fold="1" page="1" pageScale="1" pageWidth="827" pageHeight="1169" math="0" shadow="0">
      <root>
        <mxCell id="0" />
        <mxCell id="1" parent="0" />
        <mxCell id="fj0Me-2XvpFwuhAa8OaP-1" value="&lt;div style=&quot;padding-top: 0px; font-size: 17px;&quot;&gt;&amp;nbsp; External dependencies&lt;/div&gt;" style="rounded=1;whiteSpace=wrap;html=1;align=left;verticalAlign=top;arcSize=4;fontSize=17;container=0;dashed=1;dashPattern=1 4;gradientColor=none;fontColor=#4A4A4A;" vertex="1" parent="1">
          <mxGeometry x="35" y="919.59" width="684.93" height="130.41" as="geometry" />
        </mxCell>
        <mxCell id="SAuky-agSvdibuI8VWrR-51" style="edgeStyle=orthogonalEdgeStyle;rounded=0;orthogonalLoop=1;jettySize=auto;html=1;" parent="1" edge="1">
          <mxGeometry relative="1" as="geometry">
            <mxPoint x="390" y="401.9999999999998" as="targetPoint" />
          </mxGeometry>
        </mxCell>
        <mxCell id="SAuky-agSvdibuI8VWrR-64" value="&lt;div style=&quot;padding-top: 0px; font-size: 17px;&quot;&gt;&amp;nbsp; &amp;nbsp;&lt;span style=&quot;background-color: initial;&quot;&gt;Backend&lt;/span&gt;&lt;/div&gt;" style="rounded=1;whiteSpace=wrap;html=1;align=left;verticalAlign=top;arcSize=2;fontSize=17;container=0;dashed=1;dashPattern=8 8;" parent="1" vertex="1">
          <mxGeometry x="35" y="360" width="685" height="550" as="geometry" />
        </mxCell>
        <mxCell id="SAuky-agSvdibuI8VWrR-54" value="&lt;div style=&quot;padding-top: 0px; font-size: 17px;&quot;&gt;&amp;nbsp; &amp;nbsp;Frontend&lt;/div&gt;" style="rounded=1;whiteSpace=wrap;html=1;align=left;verticalAlign=top;arcSize=4;fontSize=17;container=0;dashed=1;dashPattern=8 8;" parent="1" vertex="1">
          <mxGeometry x="35.07" y="253" width="684.93" height="100.83" as="geometry" />
        </mxCell>
        <mxCell id="SAuky-agSvdibuI8VWrR-62" style="edgeStyle=orthogonalEdgeStyle;rounded=0;orthogonalLoop=1;jettySize=auto;html=1;" parent="1" source="SAuky-agSvdibuI8VWrR-60" target="SAuky-agSvdibuI8VWrR-58" edge="1">
          <mxGeometry relative="1" as="geometry" />
        </mxCell>
        <mxCell id="SAuky-agSvdibuI8VWrR-58" value="&lt;div style=&quot;padding-top: 0px; font-size: 17px;&quot;&gt;Rest Application&lt;/div&gt;" style="rounded=1;whiteSpace=wrap;html=1;align=center;verticalAlign=middle;arcSize=4;fontSize=17;container=0;fillColor=#b0e3e6;strokeColor=#0e8088;" parent="1" vertex="1">
          <mxGeometry x="116.3860975609756" y="399.99666666666667" width="265.3658536585366" height="45.83333333333333" as="geometry" />
        </mxCell>
        <mxCell id="SAuky-agSvdibuI8VWrR-60" value="&lt;div style=&quot;padding-top: 0px; font-size: 17px;&quot;&gt;Web Application&lt;/div&gt;" style="rounded=1;whiteSpace=wrap;html=1;align=center;verticalAlign=middle;arcSize=4;fontSize=17;container=0;fillColor=#b1ddf0;strokeColor=#10739e;" parent="1" vertex="1">
          <mxGeometry x="129.07" y="289.49666666666667" width="240" height="45.83333333333333" as="geometry" />
        </mxCell>
        <mxCell id="SAuky-agSvdibuI8VWrR-1" value="&lt;div style=&quot;padding-top: 0px; font-size: 17px;&quot;&gt;&lt;span style=&quot;background-color: initial;&quot;&gt;&amp;nbsp;&amp;nbsp;&lt;/span&gt;&lt;span style=&quot;background-color: initial;&quot;&gt;Integration&lt;/span&gt;&lt;br&gt;&lt;/div&gt;" style="rounded=1;whiteSpace=wrap;html=1;align=left;verticalAlign=top;arcSize=4;fontSize=17;container=0;fillColor=#e1d5e7;strokeColor=#9673a6;" parent="1" vertex="1">
          <mxGeometry x="152" y="950" width="460" height="80" as="geometry" />
        </mxCell>
        <mxCell id="SAuky-agSvdibuI8VWrR-5" value="&lt;div style=&quot;padding-top: 0px; font-size: 17px;&quot;&gt;Nautilus&lt;/div&gt;" style="rounded=1;whiteSpace=wrap;html=1;align=center;verticalAlign=middle;arcSize=4;fontSize=17;container=0;fillColor=#f5f5f5;fontColor=#333333;strokeColor=#666666;" parent="1" vertex="1">
          <mxGeometry x="162" y="980" width="140" height="40" as="geometry" />
        </mxCell>
        <mxCell id="SAuky-agSvdibuI8VWrR-6" value="&lt;div style=&quot;padding-top: 0px; font-size: 17px;&quot;&gt;JMetal&lt;/div&gt;" style="rounded=1;whiteSpace=wrap;html=1;align=center;verticalAlign=middle;arcSize=4;fontSize=17;container=0;fillColor=#f5f5f5;fontColor=#333333;strokeColor=#666666;" parent="1" vertex="1">
          <mxGeometry x="312" y="980" width="140" height="40" as="geometry" />
        </mxCell>
        <mxCell id="SAuky-agSvdibuI8VWrR-7" value="&lt;div style=&quot;padding-top: 0px; font-size: 17px;&quot;&gt;Weka&lt;/div&gt;" style="rounded=1;whiteSpace=wrap;html=1;align=center;verticalAlign=middle;arcSize=4;fontSize=17;container=0;fillColor=#f5f5f5;fontColor=#333333;strokeColor=#666666;" parent="1" vertex="1">
          <mxGeometry x="460" y="980" width="140" height="40" as="geometry" />
        </mxCell>
        <mxCell id="SAuky-agSvdibuI8VWrR-74" style="edgeStyle=orthogonalEdgeStyle;rounded=0;orthogonalLoop=1;jettySize=auto;html=1;" parent="1" target="SAuky-agSvdibuI8VWrR-1" edge="1">
          <mxGeometry relative="1" as="geometry">
            <mxPoint x="382" y="910" as="sourcePoint" />
          </mxGeometry>
        </mxCell>
        <mxCell id="SAuky-agSvdibuI8VWrR-15" value="&lt;div style=&quot;padding-top: 0px; font-size: 17px;&quot;&gt;&amp;nbsp; Interactive&lt;/div&gt;" style="rounded=1;whiteSpace=wrap;html=1;align=left;verticalAlign=top;arcSize=4;fontSize=17;container=0;fillColor=#fff2cc;strokeColor=#d6b656;" parent="1" vertex="1">
          <mxGeometry x="177" y="812" width="410" height="80" as="geometry" />
        </mxCell>
        <mxCell id="SAuky-agSvdibuI8VWrR-16" value="&lt;div style=&quot;padding-top: 0px; font-size: 17px;&quot;&gt;Interactive Function&lt;/div&gt;" style="rounded=1;whiteSpace=wrap;html=1;align=center;verticalAlign=middle;arcSize=4;fontSize=17;container=0;fillColor=#f5f5f5;fontColor=#333333;strokeColor=#666666;" parent="1" vertex="1">
          <mxGeometry x="185.91" y="842" width="161.09" height="40" as="geometry" />
        </mxCell>
        <mxCell id="SAuky-agSvdibuI8VWrR-17" value="&lt;div style=&quot;padding-top: 0px; font-size: 17px;&quot;&gt;Interaction Config&lt;/div&gt;" style="rounded=1;whiteSpace=wrap;html=1;align=center;verticalAlign=middle;arcSize=4;fontSize=17;container=0;fillColor=#f5f5f5;fontColor=#333333;strokeColor=#666666;" parent="1" vertex="1">
          <mxGeometry x="393" y="842" width="147.39" height="40" as="geometry" />
        </mxCell>
        <mxCell id="SAuky-agSvdibuI8VWrR-71" style="edgeStyle=orthogonalEdgeStyle;rounded=0;orthogonalLoop=1;jettySize=auto;html=1;" parent="1" source="SAuky-agSvdibuI8VWrR-34" target="SAuky-agSvdibuI8VWrR-10" edge="1">
          <mxGeometry relative="1" as="geometry" />
        </mxCell>
        <mxCell id="SAuky-agSvdibuI8VWrR-34" value="&lt;div style=&quot;padding-top: 0px; font-size: 17px;&quot;&gt;&amp;nbsp; Generator&lt;/div&gt;" style="rounded=1;whiteSpace=wrap;html=1;align=left;verticalAlign=top;arcSize=4;fontSize=17;container=0;fillColor=#d5e8d4;strokeColor=#82b366;" parent="1" vertex="1">
          <mxGeometry x="59" y="470" width="340" height="80" as="geometry" />
        </mxCell>
        <mxCell id="SAuky-agSvdibuI8VWrR-35" value="&lt;div style=&quot;padding-top: 0px; font-size: 17px;&quot;&gt;Model&lt;/div&gt;" style="rounded=1;whiteSpace=wrap;html=1;align=center;verticalAlign=middle;arcSize=4;fontSize=17;container=0;fillColor=#f5f5f5;fontColor=#333333;strokeColor=#666666;" parent="1" vertex="1">
          <mxGeometry x="67.91" y="500" width="161.09" height="40" as="geometry" />
        </mxCell>
        <mxCell id="SAuky-agSvdibuI8VWrR-36" value="&lt;div style=&quot;padding-top: 0px; font-size: 17px;&quot;&gt;Starter&lt;/div&gt;" style="rounded=1;whiteSpace=wrap;html=1;align=center;verticalAlign=middle;arcSize=4;fontSize=17;container=0;fillColor=#f5f5f5;fontColor=#333333;strokeColor=#666666;" parent="1" vertex="1">
          <mxGeometry x="239" y="500" width="147.39" height="40" as="geometry" />
        </mxCell>
        <mxCell id="SAuky-agSvdibuI8VWrR-72" style="edgeStyle=orthogonalEdgeStyle;rounded=0;orthogonalLoop=1;jettySize=auto;html=1;" parent="1" source="SAuky-agSvdibuI8VWrR-38" target="SAuky-agSvdibuI8VWrR-10" edge="1">
          <mxGeometry relative="1" as="geometry" />
        </mxCell>
        <mxCell id="SAuky-agSvdibuI8VWrR-38" value="&lt;div style=&quot;padding-top: 0px; font-size: 17px;&quot;&gt;Adapter&lt;/div&gt;" style="rounded=1;whiteSpace=wrap;html=1;align=center;verticalAlign=middle;arcSize=4;fontSize=17;container=0;fillColor=#dae8fc;strokeColor=#6c8ebf;" parent="1" vertex="1">
          <mxGeometry x="413" y="469" width="286.92682926829264" height="80" as="geometry" />
        </mxCell>
        <mxCell id="SAuky-agSvdibuI8VWrR-73" style="edgeStyle=orthogonalEdgeStyle;rounded=0;orthogonalLoop=1;jettySize=auto;html=1;exitX=0.5;exitY=1;exitDx=0;exitDy=0;entryX=0.5;entryY=0;entryDx=0;entryDy=0;" parent="1" source="SAuky-agSvdibuI8VWrR-10" target="SAuky-agSvdibuI8VWrR-15" edge="1">
          <mxGeometry relative="1" as="geometry" />
        </mxCell>
        <mxCell id="SAuky-agSvdibuI8VWrR-10" value="&lt;div style=&quot;padding-top: 0px; font-size: 17px;&quot;&gt;Learning&lt;/div&gt;" style="rounded=1;whiteSpace=wrap;html=1;align=left;verticalAlign=top;arcSize=4;fontSize=17;container=0;fillColor=#f8cecc;strokeColor=#b85450;" parent="1" vertex="1">
          <mxGeometry x="59" y="598" width="646.0714285714286" height="180" as="geometry" />
        </mxCell>
        <mxCell id="SAuky-agSvdibuI8VWrR-11" value="&lt;div style=&quot;padding-top: 0px; font-size: 17px;&quot;&gt;&amp;nbsp; Algorithms&lt;/div&gt;" style="rounded=1;whiteSpace=wrap;html=1;align=left;verticalAlign=top;arcSize=4;fontSize=17;container=0;fillColor=#bac8d3;strokeColor=#23445d;" parent="1" vertex="1">
          <mxGeometry x="76.60785714285714" y="648" width="213.8207142857143" height="120" as="geometry" />
        </mxCell>
        <mxCell id="SAuky-agSvdibuI8VWrR-24" value="&lt;div style=&quot;padding-top: 0px; font-size: 17px;&quot;&gt;Human Simulator&lt;/div&gt;" style="rounded=1;whiteSpace=wrap;html=1;align=center;verticalAlign=middle;arcSize=4;fontSize=17;container=0;fillColor=#bac8d3;strokeColor=#23445d;" parent="1" vertex="1">
          <mxGeometry x="502.5757029237994" y="648" width="179.60869565217394" height="40" as="geometry" />
        </mxCell>
        <mxCell id="SAuky-agSvdibuI8VWrR-25" value="&lt;div style=&quot;padding-top: 0px; font-size: 17px;&quot;&gt;Utils&lt;/div&gt;" style="rounded=1;whiteSpace=wrap;html=1;align=center;verticalAlign=middle;arcSize=4;fontSize=17;container=0;fillColor=#bac8d3;strokeColor=#23445d;" parent="1" vertex="1">
          <mxGeometry x="502.5768788819875" y="708" width="179.60869565217394" height="40" as="geometry" />
        </mxCell>
        <mxCell id="SAuky-agSvdibuI8VWrR-27" value="&lt;div style=&quot;padding-top: 0px; font-size: 17px;&quot;&gt;MLNSGAII&lt;/div&gt;" style="rounded=1;whiteSpace=wrap;html=1;align=center;verticalAlign=middle;arcSize=4;fontSize=17;container=0;fillColor=#f5f5f5;fontColor=#333333;strokeColor=#666666;" parent="1" vertex="1">
          <mxGeometry x="87.9243788819875" y="688" width="179.60869565217394" height="40" as="geometry" />
        </mxCell>
        <mxCell id="SAuky-agSvdibuI8VWrR-12" value="&lt;div style=&quot;padding-top: 0px; font-size: 17px;&quot;&gt;&amp;nbsp; Encoding&lt;/div&gt;" style="rounded=1;whiteSpace=wrap;html=1;align=left;verticalAlign=top;arcSize=4;fontSize=17;container=0;fillColor=#bac8d3;strokeColor=#23445d;" parent="1" vertex="1">
          <mxGeometry x="300.0714285714286" y="648" width="176.08821428571432" height="120" as="geometry" />
        </mxCell>
        <mxCell id="SAuky-agSvdibuI8VWrR-28" value="&lt;div style=&quot;padding-top: 0px; font-size: 17px;&quot;&gt;Binary&lt;/div&gt;" style="rounded=1;whiteSpace=wrap;html=1;align=center;verticalAlign=middle;arcSize=4;fontSize=17;container=0;fillColor=#f5f5f5;fontColor=#333333;strokeColor=#666666;" parent="1" vertex="1">
          <mxGeometry x="343.00000000000006" y="682" width="96.42857142857144" height="20" as="geometry" />
        </mxCell>
        <mxCell id="SAuky-agSvdibuI8VWrR-29" value="&lt;div style=&quot;padding-top: 0px; font-size: 17px;&quot;&gt;Double&lt;/div&gt;" style="rounded=1;whiteSpace=wrap;html=1;align=center;verticalAlign=middle;arcSize=4;fontSize=17;container=0;fillColor=#f5f5f5;fontColor=#333333;strokeColor=#666666;" parent="1" vertex="1">
          <mxGeometry x="343.00000000000006" y="710" width="96.42857142857144" height="20" as="geometry" />
        </mxCell>
        <mxCell id="SAuky-agSvdibuI8VWrR-30" value="&lt;div style=&quot;padding-top: 0px; font-size: 17px;&quot;&gt;Integer&lt;/div&gt;" style="rounded=1;whiteSpace=wrap;html=1;align=center;verticalAlign=middle;arcSize=4;fontSize=17;container=0;fillColor=#f5f5f5;fontColor=#333333;strokeColor=#666666;" parent="1" vertex="1">
          <mxGeometry x="343.00000000000006" y="738" width="96.42857142857144" height="20" as="geometry" />
        </mxCell>
        <mxCell id="fj0Me-2XvpFwuhAa8OaP-4" value="&lt;div style=&quot;padding-top: 0px; font-size: 17px;&quot;&gt;Evaluation&lt;/div&gt;" style="rounded=1;whiteSpace=wrap;html=1;align=center;verticalAlign=middle;arcSize=4;fontSize=17;container=0;fillColor=#b0e3e6;strokeColor=#0e8088;" vertex="1" parent="1">
          <mxGeometry x="398.9960975609756" y="398.99666666666667" width="265.3658536585366" height="45.83333333333333" as="geometry" />
        </mxCell>
      </root>
    </mxGraphModel>
  </diagram>
</mxfile>
